<svg id="Capa_1" enable-background="new 0 0 512.002 512.002" height="512" viewBox="0 0 512.002 512.002" width="512" xmlns="http://www.w3.org/2000/svg"><g><g><g><path d="m188.16 112.395h135.682v84.862h-135.682z" fill="#eaf6ff"/><path d="m293.842 112.395h30v84.862h-30z" fill="#d8ecfe"/><path d="m271.001 42.502h-30v-20c0-8.284 6.716-15 15-15 8.284 0 15 6.716 15 15z" fill="#fed402"/><path d="m257.97 7.646c1.227 2.175 1.936 4.681 1.936 7.356v8.506c0 6.348-5.146 11.494-11.494 11.494h-7.411v7.5h30v-20c0-7.615-5.68-13.89-13.031-14.856z" fill="#fac600"/><path d="m346.411 112.395h-180.82c-4.763 0-6.828-6.028-3.067-8.949l78.477-60.944h30l78.477 60.944c3.761 2.922 1.695 8.949-3.067 8.949z" fill="#fd4755"/><path d="m349.478 103.446-78.477-60.944h-30l-1.111.863 47.075 36.558c8.525 6.621 3.843 20.282-6.951 20.282h-113.317l-4.173 3.241c-3.762 2.921-1.696 8.949 3.067 8.949h180.819c4.763 0 6.829-6.027 3.068-8.949z" fill="#fb2b3a"/><path d="m353.842 504.502h-195.682l30-307.245h135.682z" fill="#eaf6ff"/><path d="m353.842 504.502-26.656-273-3.344-34.245h-28.906-106.776l-3.344 34.245h84.881c16.216 0 29.784 12.308 31.36 28.447l14.011 143.493 7.033 101.06z" fill="#d8ecfe"/><path d="m333.501 216.502h-159c-6.075 0-11-4.925-11-11v-15c0-6.075 4.925-11 11-11h159c6.075 0 11 4.925 11 11v15c0 6.075-4.925 11-11 11z" fill="#aa6a51"/><path d="m333.501 179.502h-30c6.075 0 11 4.925 11 11v15c0 6.075-4.925 11-11 11h30c6.075 0 11-4.925 11-11v-15c0-6.075-4.925-11-11-11z" fill="#935b44"/><path d="m358.001 504.502h-204c-6.075 0-11-4.925-11-11v-15c0-6.075 4.925-11 11-11h204c6.075 0 11 4.925 11 11v15c0 6.075-4.925 11-11 11z" fill="#5a5a5a"/><path d="m358.001 467.502h-30c6.075 0 11 4.925 11 11v15c0 6.075-4.925 11-11 11h30c6.075 0 11-4.925 11-11v-15c0-6.075-4.925-11-11-11z" fill="#444"/><path d="m164.712 437.399 174.062-87.216-8.378-85.802-156.444 78.388z" fill="#fd4755"/><path d="m302.838 278.189 8.378 85.802 27.558-13.808-8.378-85.803z" fill="#fb2b3a"/><path d="m277.553 179.502h-43.103v-29.107c0-4.418 3.582-8 8-8h27.103c4.418 0 8 3.582 8 8z" fill="#fbc56d"/><path d="m77.52 504.502c-.703-5.647-1.625-19.834 7.401-32.79 2.626-3.77 9.818-12.779 27.349-18.863 41.042-14.243 62.93 13.861 122.592 12.31 32.926-.856 46.999-9.955 64.181.684 14.712 9.109 20.49 25.746 23.059 38.659z" fill="#eaf6ff"/><path d="m78.997 504.502c1.185-4.062 3.048-8.314 5.924-12.443 2.626-3.77 9.818-12.779 27.349-18.864 41.042-14.243 62.93 13.861 122.592 12.311 32.927-.856 46.999-9.955 64.181.684 7.5 4.644 12.669 11.246 16.284 18.312h6.774c-2.568-12.913-8.346-29.55-23.059-38.659-17.182-10.638-31.254-1.54-64.181-.684-59.663 1.551-81.55-26.554-122.592-12.311-17.531 6.084-24.723 15.094-27.349 18.864-9.025 12.956-8.104 27.143-7.401 32.79z" fill="#d8ecfe"/></g></g><path d="m330.174 38.5c.399.063.796.094 1.188.094 3.623 0 6.811-2.631 7.398-6.322l3.753-23.591c.65-4.091-2.139-7.935-6.229-8.586-4.096-.653-7.936 2.139-8.586 6.229l-3.753 23.591c-.65 4.09 2.139 7.934 6.229 8.585zm14.012 17.955c1.483 1.746 3.594 2.644 5.719 2.644 1.717 0 3.442-.586 4.853-1.785l20.191-17.159c3.156-2.683 3.541-7.415.858-10.571-2.681-3.156-7.415-3.541-10.571-.858l-20.191 17.159c-3.157 2.682-3.542 7.414-.859 10.57zm22.576 8.804c-4.127 0-7.481 3.337-7.499 7.469-.018 4.142 3.326 7.514 7.469 7.531l23.887.101h.032c4.127 0 7.481-3.337 7.499-7.469.018-4.142-3.326-7.514-7.469-7.531l-23.887-.101zm137.739 431.743h-128.342c.218-1.135.342-2.303.342-3.5v-15c0-10.201-8.299-18.5-18.5-18.5h-.968l-23.046-236.025c9.975-.261 18.014-8.438 18.014-18.475v-15c0-10.201-8.299-18.5-18.5-18.5h-2.159v-52.106h15.069c5.425 0 10.066-3.316 11.825-8.448 1.758-5.132.126-10.598-4.158-13.925l-75.577-58.693v-16.328c0-12.406-10.094-22.5-22.5-22.5s-22.5 10.094-22.5 22.5v16.328l-75.576 58.693c-4.285 3.327-5.917 8.793-4.159 13.925 1.759 5.132 6.4 8.448 11.825 8.448h15.069v52.106h-6.159c-10.201 0-18.5 8.299-18.5 18.5v15c0 10.201 8.299 18.5 18.5 18.5h3.512l-21.472 219.905c-14.555-3.294-28.946-4.314-46.73 1.855-3.913 1.358-5.984 5.632-4.626 9.545 1.357 3.913 5.625 5.986 9.544 4.626 20.012-6.942 35.191-2.632 54.408 2.826 17.553 4.985 37.447 10.637 65.92 9.896 12.005-.312 21.73-1.699 29.545-2.813 13.968-1.993 21.662-3.092 30.493 2.377 7.886 4.882 13.705 13.202 17.369 24.782h-227.858c.1-6.416 1.587-13.995 6.466-21 .959-1.374 2.007-2.645 3.206-3.886 2.878-2.979 2.795-7.728-.184-10.605-2.98-2.878-7.728-2.796-10.605.184-1.758 1.82-3.302 3.693-4.723 5.73-5.851 8.399-8.988 18.679-9.146 29.577h-62.119c-4.143 0-7.5 3.357-7.5 7.5s3.357 7.5 7.5 7.5h497c4.143 0 7.5-3.357 7.5-7.5s-3.357-7.499-7.5-7.499zm-256-474.5c0-4.136 3.364-7.5 7.5-7.5s7.5 3.364 7.5 7.5v12.5h-15zm-75.615 82.394 70.686-54.894h24.859l70.686 54.894h-25.115c-4.143 0-7.5 3.357-7.5 7.5s3.357 7.5 7.5 7.5h2.341v52.106h-31.289v-21.606c0-8.547-6.953-15.5-15.5-15.5h-27.104c-8.547 0-15.5 6.953-15.5 15.5v21.606h-31.29v-52.106h88.341c4.143 0 7.5-3.357 7.5-7.5s-3.357-7.5-7.5-7.5zm97.167 45.5v21.606h-28.104v-21.606c0-.275.225-.5.5-.5h27.104c.275 0 .5.224.5.5zm-95.552 58.606c-1.93 0-3.5-1.57-3.5-3.5v-15c0-1.93 1.57-3.5 3.5-3.5h159c1.93 0 3.5 1.57 3.5 3.5v15c0 1.93-1.57 3.5-3.5 3.5zm147.93 50.981-139.694 69.995 10.348-105.977h125.832zm-141.416 87.635 142.978-71.641 6.816 69.808-157.312 78.823zm122.785 112.384c-.271-.176-.534-.365-.809-.536-13.457-8.333-25.393-6.632-40.509-4.473-7.817 1.115-16.679 2.379-27.815 2.669-26.162.665-44.91-4.639-61.432-9.332-.669-.19-1.335-.379-2-.567l.539-5.515 160.596-80.469 9.591 98.223zm57.701 33.5c0 1.93-1.57 3.5-3.5 3.5h-29.944c-2.217-8.487-5.353-15.832-9.388-22h31.531c.007 0 .014.001.021.001s.013-.001.02-.001h7.76c1.93 0 3.5 1.57 3.5 3.5zm-240.149-413.143h.032l23.887-.101c4.143-.018 7.486-3.39 7.469-7.531-.018-4.132-3.372-7.469-7.499-7.469h-.032l-23.887.101c-4.143.018-7.486 3.39-7.469 7.531.017 4.133 3.372 7.469 7.499 7.469zm15.702-40.205 20.191 17.159c1.41 1.199 3.136 1.785 4.853 1.785 2.125 0 4.235-.897 5.719-2.644 2.683-3.156 2.298-7.889-.858-10.571l-20.191-17.159c-3.155-2.683-7.889-2.298-10.571.858s-2.299 7.89.857 10.572zm36.188-7.882c.588 3.691 3.775 6.322 7.398 6.322.392 0 .788-.03 1.188-.094 4.09-.651 6.879-4.495 6.229-8.586l-3.753-23.591c-.651-4.091-4.487-6.876-8.586-6.229-4.09.651-6.879 4.495-6.229 8.586z"/></g></svg>