<svg height="512" width="512" xmlns="http://www.w3.org/2000/svg"><g id="flat"><path d="M276 116a107.37 107.37 0 0120 62.409V200a30.739 30.739 0 0029.821-23.283L328 168l5.912 7.095a63 63 0 01-.564 81.333A22.147 22.147 0 00334.5 286.5a22.147 22.147 0 0032.955-1.826L384 264l16 40a139.835 139.835 0 01-35.059 139.059l-2.018 2.018A146.549 146.549 0 01259.3 488h-16.325a146.549 146.549 0 01-125.665-71.15 146.551 146.551 0 0112.681-168.734l64.764-78.4a53.884 53.884 0 007.7-56.2A53.883 53.883 0 01221.8 46.8L256 24v29.591A107.37 107.37 0 00276 116z" fill="#e82f3e"/><path d="M315.077 433.411l.071-.071A99.417 99.417 0 00340.173 336L316.9 359.274a23.652 23.652 0 01-33.451 0A23.653 23.653 0 01282 327.406a62.507 62.507 0 007.889-67.971L252.173 184l-5.8 63.8a57.053 57.053 0 01-21.173 39.382l-32.973 26.379a74.736 74.736 0 00-28.049 58.36V381a74.74 74.74 0 0026.891 57.415 74.741 74.741 0 0048.584 17.319l23.118-.229a74.734 74.734 0 0052.306-22.094z" fill="#ea9d2d"/><path d="M120 192a8 8 0 01-8-8v-16a8 8 0 0116 0v16a8 8 0 01-8 8z" fill="#ff6268"/><path d="M144 152a8 8 0 01-8-8v-16a8 8 0 0116 0v16a8 8 0 01-8 8z" fill="#e82f3e"/><path d="M112 120a8 8 0 01-8-8V96a8 8 0 0116 0v16a8 8 0 01-8 8z" fill="#961b20"/><path d="M392 216a8 8 0 01-8-8v-16a8 8 0 0116 0v16a8 8 0 01-8 8z" fill="#e82f3e"/><path d="M368 160a8 8 0 01-8-8v-16a8 8 0 0116 0v16a8 8 0 01-8 8z" fill="#ff6268"/><path d="M400 136a8 8 0 01-8-8v-24a8 8 0 0116 0v24a8 8 0 01-8 8z" fill="#e82f3e"/></g></svg>